# xmcd
#
# Track frame offsets:
#	150
#	11787
#	24392
#	37240
#	50400
#	63035
#	73517
#	84105
#	97015
#	109052
#
# Disc length: 1620 seconds
#
# Revision: 1
# Processed by: cddbd v1.5.1PL0 Copyright (c) Steve Scherf et al.
# Submitted via: audiograbber 1.83.01
#
DISCID=7a06520a
DTITLE=Jim and Jesse McReynolds - Early Bluegrass Gospel Classics
DYEAR=1900
DGENRE=
TTITLE0=I'll Fly Away
TTITLE1=God Put The Rainbow In The Cloud
TTITLE2=You Go To Your Church And I'll Go To Mine
TTITLE3=Just A Little Walk With Jesus
TTITLE4=Sing, Sing, Sing
TTITLE5=Let Me Travel Alone
TTITLE6=Camping In Canaan's Land
TTITLE7=On The Jericho Road
TTITLE8=I Like The Old Time Way
TTITLE9=I'll Be Listening
EXTD=
EXTT0=
EXTT1=
EXTT2=
EXTT3=
EXTT4=
EXTT5=
EXTT6=
EXTT7=
EXTT8=
EXTT9=
PLAYORDER=
